PathFileType	4	(X/Y/Z)	
DataRate	CameraRate	NumFrames	NumMarkers	Units	OrigDataRate	OrigDataStartFrame	OrigNumFrames
60	60	12	25	m	100	165	188
Frame#	Time	Nose				Neck				RShoulder				RElbow				RWrist				LShoulder				LElbow				LWrist				CHip				RHip				RKnee				RAnkle				LHip				LKnee				LAnkle				REye				LEye				REar				LEar				LBigToe				LSmallToe				LHeel				RBigToe				RSmallToe				RHeel			
X1	Y1	Z1	X2	Y2	Z2	X3	Y3	Z3	X4	Y4	Z4	X5	Y5	Z5	X6	Y6	Z6	X7	Y7	Z7	X8	Y8	Z8	X9	Y9	Z9	X10	Y10	Z10	X11	Y11	Z11	X12	Y12	Z12	X13	Y13	Z13	X14	Y14	Z14	X15	Y15	Z15	X16	Y16	Z16	X17	Y17	Z17	X18	Y18	Z18	X19	Y19	Z19	X20	Y20	Z20	X21	Y21	Z21	X22	Y22	Z22	X23	Y23	Z23	X24	Y24	Z24	X25	Y25	Z25
165	2.7333333333333334	-0.0119871	1.4161679	-0.5138252	0.1073794	1.2991965	-0.6757356	0.0266011	1.3750827	-0.7936969	-0.2379076	1.2483492	-0.8453323	-0.3823139	1.1944914	-0.6336222	0.1327173	1.2156298	-0.5369774	-0.1021246	1.0158345	-0.529027	-0.3569301	1.0722679	-0.543942	-0.0259845	0.8182516	-0.8175904	-0.0753145	0.8392789	-0.9171208	-0.3118377	0.466852	-0.8147565	-0.4524034	0.0705891	-0.7621037	0.0170575	0.8020558	-0.7166552	-0.009042	0.3647711	-0.6883934	0.3577151	0.1829622	-0.8187984	-0.008679	1.4572647	-0.5300035	0.0194788	1.4310789	-0.4873426	0.0470084	1.4843723	-0.6226749	0.1247669	1.4097307	-0.5016237	0.3490535	0.0104555	-0.8045568	0.3832857	0.0352688	-0.7952257	0.3843872	0.2020773	-0.83876	-0.6076081	0.037003	-0.6628576	-0.6021621	0.0384053	-0.697758	-0.4191811	0.0377876	-0.7772281
166	2.75	-0.0191549	1.4131004	-0.516653	0.1042005	1.2939091	-0.6728309	0.0342282	1.3709936	-0.7986543	-0.2209333	1.2454754	-0.8826433	-0.3929239	1.1992595	-0.6910577	0.1174349	1.211195	-0.5328498	-0.1304287	1.0257298	-0.5380876	-0.3833334	1.0841995	-0.5742586	-0.0288897	0.8164108	-0.8238449	-0.0745367	0.8378895	-0.9250067	-0.3112294	0.4644428	-0.8246962	-0.452307	0.0691969	-0.7676492	0.0101208	0.7992913	-0.7212553	-0.0100265	0.3610234	-0.7029696	0.3596219	0.1793328	-0.8250082	-0.0144008	1.4542965	-0.5322176	0.0113692	1.4271783	-0.4886863	0.0457592	1.4813449	-0.6224449	0.1165863	1.4040887	-0.4986422	0.3500693	0.0067526	-0.8051349	0.3839602	0.0319276	-0.7961658	0.3872424	0.1977479	-0.8442968	-0.6093651	0.0378443	-0.6703951	-0.6034514	0.0387795	-0.7048135	-0.4191132	0.0357252	-0.7820267
167	2.7666666666666666	-0.0243212	1.4178288	-0.5197356	0.0996529	1.2953144	-0.6719353	0.0314638	1.3683555	-0.8027425	-0.2152068	1.2283312	-0.8892746	-0.3940827	1.1885347	-0.7028108	0.1096865	1.2161859	-0.5296125	-0.1459321	1.040066	-0.5340198	-0.3993932	1.0933031	-0.57891	-0.0324336	0.8171849	-0.8235274	-0.0777503	0.8397171	-0.9245101	-0.3130158	0.4652236	-0.8270451	-0.4532081	0.0698328	-0.7710296	0.006243	0.7988615	-0.7208562	-0.0059308	0.3599452	-0.7124486	0.361934	0.1780436	-0.8394672	-0.0193385	1.4588001	-0.5357699	0.0058252	1.4322882	-0.4915462	0.0419148	1.4846622	-0.6259566	0.1111446	1.4090328	-0.4998161	0.3513749	0.0055453	-0.8139243	0.3855164	0.0310099	-0.8062835	0.3898638	0.1956754	-0.859115	-0.6099415	0.0395653	-0.6726353	-0.6044348	0.040576	-0.7069106	-0.4204802	0.0357984	-0.785895
168	2.783333333333333	-0.0243879	1.4186308	-0.5239884	0.1040342	1.29083	-0.6668584	0.0446246	1.3616796	-0.8046639	-0.1925952	1.2121669	-0.9018133	-0.3863378	1.1787025	-0.7295865	0.1029391	1.2141154	-0.522841	-0.1627194	1.0532647	-0.5439518	-0.4122243	1.1068195	-0.610173	-0.0306491	0.8148324	-0.823645	-0.0728979	0.8384297	-0.9256014	-0.3149495	0.4678122	-0.8324752	-0.4605573	0.0751415	-0.7742341	0.0050427	0.7954208	-0.7199984	-0.003069	0.3565078	-0.7190396	0.3644412	0.1724509	-0.8439264	-0.0174188	1.4593143	-0.5399678	0.0043111	1.4326164	-0.4940925	0.0497189	1.4828942	-0.6267782	0.1093361	1.406703	-0.4956797	0.3514957	0.000345	-0.8132997	0.3859681	0.0257345	-0.8063506	0.3930176	0.1892435	-0.8633241	-0.6190588	0.0502236	-0.6771422	-0.613439	0.0506229	-0.7111015	-0.4284697	0.0399481	-0.7884057
169	2.8	-0.0190661	1.4197301	-0.5179663	0.1025307	1.2873641	-0.6621693	0.041488	1.3566685	-0.8007259	-0.1944435	1.201045	-0.8913348	-0.3893708	1.1714987	-0.7197861	0.1040286	1.2134638	-0.5165941	-0.1729817	1.0708718	-0.5155768	-0.427366	1.1279148	-0.5600306	-0.0387696	0.8143395	-0.818826	-0.0827098	0.8396601	-0.9194463	-0.3187536	0.464893	-0.8301053	-0.4574336	0.0696943	-0.774873	-0.0014318	0.7932222	-0.7161582	0.0025979	0.3546737	-0.7257111	0.3690368	0.1760905	-0.861219	-0.0115828	1.4601566	-0.5343104	0.0103975	1.4333534	-0.488658	0.0543934	1.4817746	-0.6227507	0.1150408	1.4053328	-0.4919774	0.35744	0.0039207	-0.8270243	0.3919796	0.029798	-0.8214622	0.3972969	0.19262	-0.8812273	-0.6143082	0.0438262	-0.6751618	-0.6094416	0.0444813	-0.7090991	-0.4259616	0.0343643	-0.7901717
170	2.816666666666667	-0.0163113	1.4202291	-0.5149755	0.1035839	1.2858571	-0.6580292	0.0447998	1.3539531	-0.7986312	-0.1868796	1.1942121	-0.8926471	-0.3899257	1.1648574	-0.7307065	0.1040053	1.2140527	-0.5116183	-0.179384	1.0842845	-0.5011494	-0.4362783	1.1399368	-0.5362568	-0.040714	0.8146735	-0.8154638	-0.0832786	0.8406065	-0.9163328	-0.3212926	0.4667673	-0.831136	-0.4628639	0.0730358	-0.7754045	-0.0046397	0.7931463	-0.7125707	0.0085319	0.3553748	-0.7247745	0.3760147	0.1770629	-0.8578843	-0.0084926	1.4605982	-0.5312862	0.0130573	1.4337054	-0.485531	0.0580894	1.4816747	-0.6196643	0.117623	1.4050322	-0.4883691	0.3641328	0.0057695	-0.8172561	0.3988467	0.0319557	-0.812681	0.4044086	0.1928508	-0.878228	-0.6223859	0.0520475	-0.6788591	-0.6170961	0.0520194	-0.7124985	-0.4320553	0.0367695	-0.7899346
171	2.8333333333333335	-0.0201105	1.4170549	-0.5067692	0.1021422	1.2842174	-0.6480543	0.05106	1.3548503	-0.7908778	-0.1702894	1.197083	-0.9085867	-0.3922576	1.1618829	-0.7750157	0.0968537	1.2110132	-0.5032746	-0.1911878	1.0904031	-0.5003744	-0.4486237	1.1432828	-0.5396538	-0.0435192	0.8176202	-0.8164834	-0.0846335	0.8450155	-0.91737	-0.3236673	0.4706407	-0.8380899	-0.4664728	0.0776717	-0.7827643	-0.0086496	0.7946192	-0.7136675	0.0155325	0.3581215	-0.7354684	0.3832995	0.1857176	-0.8751911	-0.011532	1.4577562	-0.5218377	0.0083354	1.4296465	-0.4761027	0.0580304	1.4804027	-0.6076304	0.1127472	1.4004141	-0.4763162	0.3730377	0.0144917	-0.8321831	0.407872	0.0410032	-0.8284961	0.4112829	0.2014423	-0.8958497	-0.6284291	0.0601833	-0.6898674	-0.6227087	0.0596658	-0.7229936	-0.436026	0.0408192	-0.7967774
172	2.85	-0.0310981	1.4167448	-0.5264014	0.1035285	1.2782495	-0.6484696	0.0707553	1.3457141	-0.7988043	-0.1338097	1.1859031	-0.9412365	-0.3742549	1.1499952	-0.8445771	0.0795515	1.209522	-0.504087	-0.2108942	1.0993437	-0.5417918	-0.4583926	1.1500467	-0.6255459	-0.0386102	0.8113375	-0.8201836	-0.0736386	0.8370939	-0.9237104	-0.3183003	0.4656077	-0.8474419	-0.4657234	0.0763066	-0.7816658	-0.0093882	0.7896	-0.7152935	0.0205055	0.3533188	-0.7374614	0.3877321	0.1748506	-0.8704724	-0.0201324	1.4569644	-0.5412002	-0.006308	1.4296623	-0.4928452	0.05947	1.4766029	-0.6185931	0.0969007	1.3990049	-0.4799515	0.3733026	0.0045455	-0.823316	0.4087952	0.0305946	-0.8198452	0.4163557	0.1894535	-0.8907253	-0.6343235	0.0661442	-0.7004111	-0.6263831	0.0637293	-0.7322298	-0.435012	0.0383011	-0.7920139
173	2.8666666666666667	-0.0197304	1.4170643	-0.515939	0.1066214	1.2785062	-0.6458623	0.061558	1.347033	-0.7920787	-0.1663771	1.1943083	-0.9050125	-0.3918573	1.1634265	-0.7755447	0.0944534	1.2107416	-0.499054	-0.2017801	1.1113695	-0.5046219	-0.457443	1.1634973	-0.5593004	-0.0507886	0.8148469	-0.8091295	-0.0906695	0.841554	-0.910596	-0.3255888	0.4646497	-0.8348507	-0.4670962	0.0735214	-0.7684616	-0.0164107	0.7924173	-0.7061452	0.030765	0.3591101	-0.7360899	0.3943512	0.1853263	-0.8846959	-0.0098476	1.457369	-0.5311936	0.0066584	1.4301336	-0.4836765	0.065664	1.477522	-0.6126893	0.1110735	1.4000887	-0.4762928	0.38469	0.0155034	-0.8329028	0.4201417	0.0423893	-0.8315796	0.4215207	0.1996101	-0.9068966	-0.6363073	0.0640643	-0.6885397	-0.6284256	0.061345	-0.7199918	-0.4367338	0.0353308	-0.7790669
174	2.8833333333333333	-0.020796	1.4208789	-0.5352961	0.110103	1.2768711	-0.6526951	0.0728437	1.3437878	-0.8015007	-0.1628246	1.2059444	-0.9183103	-0.3949932	1.1883354	-0.7979353	0.0909644	1.214837	-0.5043886	-0.2098464	1.1313223	-0.515486	-0.4623788	1.1890935	-0.5796424	-0.0559372	0.8150011	-0.8094932	-0.09333	0.8402427	-0.912215	-0.3285025	0.4630101	-0.841485	-0.4713258	0.0734869	-0.7701297	-0.0235374	0.7940892	-0.7057232	0.035308	0.3626199	-0.7345357	0.3975185	0.1820583	-0.878557	-0.0095879	1.460706	-0.550846	0.0033473	1.434666	-0.5016128	0.0717768	1.4780704	-0.6273171	0.1072202	1.4041601	-0.4862345	0.3867318	0.0135893	-0.8212169	0.4225917	0.0405178	-0.8206128	0.4244508	0.1951172	-0.9013406	-0.646468	0.0680654	-0.703977	-0.6362864	0.0639191	-0.733932	-0.4408397	0.0346059	-0.777458
175	2.9	-0.0160951	1.4142958	-0.5207877	0.116225	1.2751211	-0.6405836	0.0778017	1.3446233	-0.7874073	-0.1618423	1.2148854	-0.9059763	-0.3962986	1.1934662	-0.7901533	0.1000048	1.2126255	-0.4926079	-0.2027839	1.1361884	-0.4902297	-0.4585219	1.1948476	-0.540492	-0.05559	0.8160543	-0.798518	-0.0913309	0.842351	-0.9013903	-0.326225	0.4624415	-0.8500617	-0.4720806	0.0723528	-0.7897618	-0.0238485	0.7945095	-0.695057	0.0441885	0.3653072	-0.7281442	0.4007862	0.1733543	-0.8718065	-0.0061134	1.4547513	-0.5355361	0.0076714	1.4281317	-0.4868909	0.0748484	1.4758763	-0.6117886	0.112739	1.4004176	-0.4723997	0.3871572	0.0061094	-0.8101389	0.4238669	0.0327134	-0.8100909	0.4275309	0.1849251	-0.895727	-0.6534492	0.069859	-0.7434878	-0.6401853	0.0650457	-0.7715479	-0.441946	0.0329311	-0.794309
176	2.9166666666666665	-0.019816	1.4154519	-0.5103095	0.1212994	1.277351	-0.6190798	0.0952915	1.3503493	-0.7667138	-0.1441431	1.2332222	-0.8999098	-0.3866605	1.2147548	-0.8006881	0.0919477	1.2145293	-0.4733426	-0.2130903	1.1512638	-0.494841	-0.4628673	1.2163451	-0.564676	-0.0519121	0.8280811	-0.8031092	-0.0738453	0.8603646	-0.9079395	-0.324818	0.4901741	-0.9250129	-0.501456	0.1081512	-0.9243225	-0.0322988	0.8013272	-0.6981127	0.0445806	0.3762348	-0.7503006	0.408249	0.1821379	-0.8716725	-0.0087003	1.456182	-0.5234504	0.0006336	1.4288337	-0.4741813	0.0791085	1.4785812	-0.5916301	0.1042939	1.4011612	-0.4505273	0.3867521	0.012518	-0.8193708	0.4244052	0.0382428	-0.814145	0.43638	0.1940318	-0.8934307	-0.6876041	0.1205509	-0.9257621	-0.6688591	0.1151735	-0.9491473	-0.4742803	0.0667285	-0.9248087
